# xmcd CD database file
#
# Track frame offsets:
#	150
#	15399
#	31697
#	48949
#	70984
#	84054
#	96574
#	121413
#	137647
#	147752
#	161134
#	174190
#
# Disc length: 2538 seconds
#
# Revision: 0
# Processed by: cddbd v1.5.2PL0 Copyright (c) Steve Scherf et al.
# Submitted via: CDex 1.51
#
DISCID=9109e80c
DTITLE=The Unseen Strangers - Time Travel
DYEAR=2010
DGENRE=Country
TTITLE0=Windmill Road
TTITLE1=Still Too Far To Go
TTITLE2=Don't Let Me Fall
TTITLE3=Time Travel
TTITLE4=Heart Attack Stomp
TTITLE5=Jessica
TTITLE6=The Sacred Call
TTITLE7=Dog Creek
TTITLE8=Goblins
TTITLE9=Joking
TTITLE10=End Of The World
TTITLE11=Iceburger
EXTD=YEAR: 2010
EXTT0=
EXTT1=
EXTT2=
EXTT3=
EXTT4=
EXTT5=
EXTT6=
EXTT7=
EXTT8=
EXTT9=
EXTT10=
EXTT11=
PLAYORDER=
